<svg xmlns="http://www.w3.org/2000/svg" viewBox="0 0 17 17" height="17" width="17"><title>building-alt1.svg</title><rect fill="none" x="0" y="0" width="17" height="17"></rect><path fill="#000" transform="translate(1 1)" d="M11,13.5v-9C11,4.2,10.8,4,10.5,4H9V1L5,2.1v11.4H2V14h11v-0.5H11z M7,13.5V3h1v10.5H7z" style="stroke-linejoin:round;stroke-miterlimit:4;" stroke="#000" stroke-width="2"></path><path fill="#fff" transform="translate(1 1)" d="M11,13.5v-9C11,4.2,10.8,4,10.5,4H9V1L5,2.1v11.4H2V14h11v-0.5H11z M7,13.5V3h1v10.5H7z"></path></svg>