<svg xmlns="http://www.w3.org/2000/svg" viewBox="0 0 17 17" height="17" width="17"><title>building.svg</title><rect fill="none" x="0" y="0" width="17" height="17"></rect><path fill="#000" transform="translate(1 1)" d="M3,2v11h5v-3h3v3h1V2H3z M7,12H4v-2h3V12z M7,9H4V7h3V9z M7,6H4V4h3V6z M11,9H8V7h3V9z M11,6H8V4h3V6z" style="stroke-linejoin:round;stroke-miterlimit:4;" stroke="#000" stroke-width="2"></path><path fill="#fff" transform="translate(1 1)" d="M3,2v11h5v-3h3v3h1V2H3z M7,12H4v-2h3V12z M7,9H4V7h3V9z M7,6H4V4h3V6z M11,9H8V7h3V9z M11,6H8V4h3V6z"></path></svg>