<svg xmlns="http://www.w3.org/2000/svg" viewBox="0 0 17 17" height="17" width="17"><title>campsite.svg</title><rect fill="none" x="0" y="0" width="17" height="17"></rect><path fill="#000" transform="translate(1 1)" d="M7,1.5
	l-5.5,9H1c-1,0-1,1-1,1v1c0,0,0,1,1,1h13c1,0,1-1,1-1v-1c0,0,0-1-1-1h-0.5L8,1.5C7.8,1.1,7.2,1.1,7,1.5z M7.5,5l3.2,5.5H4.2L7.5,5z" style="stroke-linejoin:round;stroke-miterlimit:4;" stroke="#000" stroke-width="2"></path><path fill="#fff" transform="translate(1 1)" d="M7,1.5
	l-5.5,9H1c-1,0-1,1-1,1v1c0,0,0,1,1,1h13c1,0,1-1,1-1v-1c0,0,0-1-1-1h-0.5L8,1.5C7.8,1.1,7.2,1.1,7,1.5z M7.5,5l3.2,5.5H4.2L7.5,5z"></path></svg>