<svg xmlns="http://www.w3.org/2000/svg" viewBox="0 0 17 17" height="17" width="17"><title>drinking-water.svg</title><rect fill="none" x="0" y="0" width="17" height="17"></rect><path fill="#000" transform="translate(1 1)" d="M6,1A2,2,0,0,0,4,3V6.5a.5.5,0,0,0,.5.5h2A.5.5,0,0,0,7,6.5v-2A.5.5,0,0,1,7.5,4H14V1ZM7,15H4a.5.5,0,0,1-.48-.38L2,8.62a.5.5,0,0,1,.365-.606A.558.558,0,0,1,2.5,8h6a.5.5,0,0,1,.514.485A.47.47,0,0,1,9,8.62l-1.5,6A.5.5,0,0,1,7,15ZM3.65,11H7.36l.5-2H3.14Z" style="stroke-linejoin:round;stroke-miterlimit:4;" stroke="#000" stroke-width="2"></path><path fill="#fff" transform="translate(1 1)" d="M6,1A2,2,0,0,0,4,3V6.5a.5.5,0,0,0,.5.5h2A.5.5,0,0,0,7,6.5v-2A.5.5,0,0,1,7.5,4H14V1ZM7,15H4a.5.5,0,0,1-.48-.38L2,8.62a.5.5,0,0,1,.365-.606A.558.558,0,0,1,2.5,8h6a.5.5,0,0,1,.514.485A.47.47,0,0,1,9,8.62l-1.5,6A.5.5,0,0,1,7,15ZM3.65,11H7.36l.5-2H3.14Z"></path></svg>