<svg xmlns="http://www.w3.org/2000/svg" viewBox="0 0 17 17" height="17" width="17"><title>elevator.svg</title><rect fill="none" x="0" y="0" width="17" height="17"></rect><path fill="#000" transform="translate(1 1)" d="M11,1H4A1,1,0,0,0,3,2V13a1,1,0,0,0,1,1h7a1,1,0,0,0,1-1V2A1,1,0,0,0,11,1ZM7.5,12.5l-2-4h4Zm-2-6,2-4,2,4Z" style="stroke-linejoin:round;stroke-miterlimit:4;" stroke="#000" stroke-width="2"></path><path fill="#fff" transform="translate(1 1)" d="M11,1H4A1,1,0,0,0,3,2V13a1,1,0,0,0,1,1h7a1,1,0,0,0,1-1V2A1,1,0,0,0,11,1ZM7.5,12.5l-2-4h4Zm-2-6,2-4,2,4Z"></path></svg>