<svg xmlns="http://www.w3.org/2000/svg" viewBox="0 0 17 17" height="17" width="17"><title>farm.svg</title><rect fill="none" x="0" y="0" width="17" height="17"></rect><path fill="#000" transform="translate(1 1)" d="M8,7L5,5,2,7,1,9v4H3V11H7v2H9V9ZM6,9H4V7H6V9Zm8,4H11V3.5a1.5,1.5,0,0,1,3,0V13Z" style="stroke-linejoin:round;stroke-miterlimit:4;" stroke="#000" stroke-width="2"></path><path fill="#fff" transform="translate(1 1)" d="M8,7L5,5,2,7,1,9v4H3V11H7v2H9V9ZM6,9H4V7H6V9Zm8,4H11V3.5a1.5,1.5,0,0,1,3,0V13Z"></path></svg>