<svg xmlns="http://www.w3.org/2000/svg" viewBox="0 0 17 17" height="17" width="17"><title>ferry-JP.svg</title><rect fill="none" x="0" y="0" width="17" height="17"></rect><path fill="#000" transform="translate(1 1)" d="M3,7c0,0.5,0,5,0,5c0,0.6,0.4,1,1,1h6c0.6,0,1-0.4,1-1c0,0,0-4.5,0-5c0-2-3-7-4-7S3,5,3,7z M5,11V8c0-3,2-5.5,2-5.5S9,5,9,8
	v3H5z" style="stroke-linejoin:round;stroke-miterlimit:4;" stroke="#000" stroke-width="2"></path><path fill="#fff" transform="translate(1 1)" d="M3,7c0,0.5,0,5,0,5c0,0.6,0.4,1,1,1h6c0.6,0,1-0.4,1-1c0,0,0-4.5,0-5c0-2-3-7-4-7S3,5,3,7z M5,11V8c0-3,2-5.5,2-5.5S9,5,9,8
	v3H5z"></path></svg>