<svg xmlns="http://www.w3.org/2000/svg" viewBox="0 0 17 17" height="17" width="17"><title>industry.svg</title><rect fill="none" x="0" y="0" width="17" height="17"></rect><path fill="#000" transform="translate(1 1)" d="M14,1v12H1V8.72c0.0016-0.1419,0.0634-0.2764,0.17-0.37l3-3.22c0.2074-0.1823,0.5234-0.1618,0.7056,0.0456
	C4.9568,5.268,5.0011,5.387,5,5.51v3l3.16-3.37c0.2025-0.1878,0.5188-0.1759,0.7066,0.0266C8.9532,5.2599,9.0009,5.3827,9,5.51V11h3
	V1H14z" style="stroke-linejoin:round;stroke-miterlimit:4;" stroke="#000" stroke-width="2"></path><path fill="#fff" transform="translate(1 1)" d="M14,1v12H1V8.72c0.0016-0.1419,0.0634-0.2764,0.17-0.37l3-3.22c0.2074-0.1823,0.5234-0.1618,0.7056,0.0456
	C4.9568,5.268,5.0011,5.387,5,5.51v3l3.16-3.37c0.2025-0.1878,0.5188-0.1759,0.7066,0.0266C8.9532,5.2599,9.0009,5.3827,9,5.51V11h3
	V1H14z"></path></svg>