<svg xmlns="http://www.w3.org/2000/svg" viewBox="0 0 17 17" height="17" width="17"><title>landmark-JP.svg</title><rect fill="none" x="0" y="0" width="17" height="17"></rect><path fill="#000" transform="translate(1 1)" d="M9.5,4.5a2,2,0,1,1-2-2A2,2,0,0,1,9.5,4.5Zm-6,4a2,2,0,1,0,2,2A2,2,0,0,0,3.5,8.5Zm8,0a2,2,0,1,0,2,2A2,2,0,0,0,11.5,8.5Z" style="stroke-linejoin:round;stroke-miterlimit:4;" stroke="#000" stroke-width="2"></path><path fill="#fff" transform="translate(1 1)" d="M9.5,4.5a2,2,0,1,1-2-2A2,2,0,0,1,9.5,4.5Zm-6,4a2,2,0,1,0,2,2A2,2,0,0,0,3.5,8.5Zm8,0a2,2,0,1,0,2,2A2,2,0,0,0,11.5,8.5Z"></path></svg>