<svg xmlns="http://www.w3.org/2000/svg" viewBox="0 0 17 17" height="17" width="17"><title>laundry.svg</title><rect fill="none" x="0" y="0" width="17" height="17"></rect><path fill="#000" transform="translate(1 1)" d="M8,1L6,3H3c0,0-1,0-1,1v9c0,1,1,1,1,1h9c0,0,1,0,1-1V2c0-1-1-1-1-1
	S8,1,8,1z M8.5,2h2C10.777,2,11,2.223,11,2.5S10.777,3,10.5,3h-2C8.223,3,8,2.777,8,2.5S8.223,2,8.5,2z M7.5,6
	c1.6569,0,3,1.3431,3,3s-1.3431,3-3,3s-3-1.3431-3-3S5.8431,6,7.5,6z" style="stroke-linejoin:round;stroke-miterlimit:4;" stroke="#000" stroke-width="2"></path><path fill="#fff" transform="translate(1 1)" d="M8,1L6,3H3c0,0-1,0-1,1v9c0,1,1,1,1,1h9c0,0,1,0,1-1V2c0-1-1-1-1-1
	S8,1,8,1z M8.5,2h2C10.777,2,11,2.223,11,2.5S10.777,3,10.5,3h-2C8.223,3,8,2.777,8,2.5S8.223,2,8.5,2z M7.5,6
	c1.6569,0,3,1.3431,3,3s-1.3431,3-3,3s-3-1.3431-3-3S5.8431,6,7.5,6z"></path></svg>