<svg xmlns="http://www.w3.org/2000/svg" viewBox="0 0 17 17" height="17" width="17"><title>post-JP.svg</title><rect fill="none" x="0" y="0" width="17" height="17"></rect><path fill="#000" transform="translate(1 1)" d="M1.5,3a1,1,0,0,1,1-1h10a1,1,0,0,1,0,2H2.5a1,1,0,0,1-1-.9995Zm11,2.5H2.5a1,1,0,0,0,0,2h4V12a1,1,0,0,0,2,0V7.5h4a1,1,0,0,0,0-2Z" style="stroke-linejoin:round;stroke-miterlimit:4;" stroke="#000" stroke-width="2"></path><path fill="#fff" transform="translate(1 1)" d="M1.5,3a1,1,0,0,1,1-1h10a1,1,0,0,1,0,2H2.5a1,1,0,0,1-1-.9995Zm11,2.5H2.5a1,1,0,0,0,0,2h4V12a1,1,0,0,0,2,0V7.5h4a1,1,0,0,0,0-2Z"></path></svg>