<svg xmlns="http://www.w3.org/2000/svg" viewBox="0 0 17 17" height="17" width="17"><title>religious-christian.svg</title><rect fill="none" x="0" y="0" width="17" height="17"></rect><path fill="#000" transform="translate(1 1)" d="M6,0.9552V4H3v3h3v8h3V7h3V4H9V1
	c0-1-0.9776-1-0.9776-1H6.9887C6.9887,0,6,0,6,0.9552z" style="stroke-linejoin:round;stroke-miterlimit:4;" stroke="#000" stroke-width="2"></path><path fill="#fff" transform="translate(1 1)" d="M6,0.9552V4H3v3h3v8h3V7h3V4H9V1
	c0-1-0.9776-1-0.9776-1H6.9887C6.9887,0,6,0,6,0.9552z"></path></svg>