<svg xmlns="http://www.w3.org/2000/svg" viewBox="0 0 17 17" height="17" width="17"><title>roadblock.svg</title><rect fill="none" x="0" y="0" width="17" height="17"></rect><path fill="#000" transform="translate(1 1)" d="M7.5,0C3.3579,0,0,3.3579,0,7.5S3.3579,15,7.5,15S15,11.6421,15,7.5S11.6421,0,7.5,0z M3,6h9v3H3V6z" style="stroke-linejoin:round;stroke-miterlimit:4;" stroke="#000" stroke-width="2"></path><path fill="#fff" transform="translate(1 1)" d="M7.5,0C3.3579,0,0,3.3579,0,7.5S3.3579,15,7.5,15S15,11.6421,15,7.5S11.6421,0,7.5,0z M3,6h9v3H3V6z"></path></svg>