<svg xmlns="http://www.w3.org/2000/svg" viewBox="0 0 17 17" height="17" width="17"><title>square-stroked.svg</title><rect fill="none" x="0" y="0" width="17" height="17"></rect><path fill="#000" transform="translate(1 1)" d="M12.7,2.3v10.4H2.3V2.3H12.7 M13,1H2C1.4477,1,1,1.4477,1,2v11c0,0.5523,0.4477,1,1,1h11c0.5523,0,1-0.4477,1-1V2
	C14,1.4477,13.5523,1,13,1L13,1z" style="stroke-linejoin:round;stroke-miterlimit:4;" stroke="#000" stroke-width="2"></path><path fill="#fff" transform="translate(1 1)" d="M12.7,2.3v10.4H2.3V2.3H12.7 M13,1H2C1.4477,1,1,1.4477,1,2v11c0,0.5523,0.4477,1,1,1h11c0.5523,0,1-0.4477,1-1V2
	C14,1.4477,13.5523,1,13,1L13,1z"></path></svg>