<svg xmlns="http://www.w3.org/2000/svg" viewBox="0 0 17 17" height="17" width="17"><title>square.svg</title><rect fill="none" x="0" y="0" width="17" height="17"></rect><path fill="#000" transform="translate(1 1)" d="M13,14H2c-0.5523,0-1-0.4477-1-1V2c0-0.5523,0.4477-1,1-1h11c0.5523,0,1,0.4477,1,1v11C14,13.5523,13.5523,14,13,14z" style="stroke-linejoin:round;stroke-miterlimit:4;" stroke="#000" stroke-width="2"></path><path fill="#fff" transform="translate(1 1)" d="M13,14H2c-0.5523,0-1-0.4477-1-1V2c0-0.5523,0.4477-1,1-1h11c0.5523,0,1,0.4477,1,1v11C14,13.5523,13.5523,14,13,14z"></path></svg>