<?xml version="1.0" encoding="UTF-8" standalone="no"?>
<svg
   height="15"
   width="15"
   version="1.1"
   id="svg4"
   sodipodi:docname="flag.svg"
   inkscape:version="1.2 (1:1.2+202206011327+fc4e4096c5)"
   xmlns:inkscape="http://www.inkscape.org/namespaces/inkscape"
   xmlns:sodipodi="http://sodipodi.sourceforge.net/DTD/sodipodi-0.dtd"
   xmlns="http://www.w3.org/2000/svg"
   xmlns:svg="http://www.w3.org/2000/svg">
  <defs
     id="defs8" />
  <sodipodi:namedview
     id="namedview6"
     pagecolor="#ffffff"
     bordercolor="#666666"
     borderopacity="1.0"
     inkscape:showpageshadow="2"
     inkscape:pageopacity="0.0"
     inkscape:pagecheckerboard="0"
     inkscape:deskcolor="#d1d1d1"
     showgrid="false"
     inkscape:zoom="43.8"
     inkscape:cx="6.0388128"
     inkscape:cy="10"
     inkscape:window-width="1920"
     inkscape:window-height="1043"
     inkscape:window-x="1920"
     inkscape:window-y="0"
     inkscape:window-maximized="1"
     inkscape:current-layer="svg4" />
  <path
     d="M 0,15 V 7.6e-7 H 8.0066349 L 8.3814501,1.7427832 H 13.234983 V 10.699161 H 6.970071 L 6.5952564,8.934143 H 1.8528976 V 15 Z M 6.6174912,5.3384628 Z M 8.470389,8.8462621 h 2.911695 V 3.5956808 H 6.8377211 L 6.5063173,1.8528982 H 1.8528976 v 5.2283475 h 6.2860876 z"
     id="path2"
     style="stroke-width:1" />
  <path
     style="fill:#ffff00;stroke:none;stroke-width:5;stroke-linejoin:round;stroke-dasharray:10, 5;fill-opacity:0.75"
     d="M 8.3352237,8.0650685 C 8.2561986,7.6412671 8.1814975,7.2457192 8.1692215,7.1860731 L 8.1469011,7.0776256 H 5.0095237 1.8721461 V 4.4748858 1.8721461 h 2.3173516 c 1.3520541,0 2.3173516,0.00853 2.3173516,0.020477 0,0.011262 0.071918,0.3975956 0.1598174,0.8585188 0.087899,0.4609231 0.1598173,0.8421195 0.1598173,0.8471031 0,0.00498 1.0222603,0.00906 2.2716895,0.00906 H 11.369863 V 6.2214612 8.8356164 H 9.9243845 8.4789057 Z"
     id="path1996" />
</svg>
