<?xml version="1.0" encoding="UTF-8" standalone="no"?>
<svg
   height="24"
   width="24"
   version="1.1"
   id="svg4"
   sodipodi:docname="pin_drop.svg"
   inkscape:version="1.2 (1:1.2+202206011327+fc4e4096c5)"
   xmlns:inkscape="http://www.inkscape.org/namespaces/inkscape"
   xmlns:sodipodi="http://sodipodi.sourceforge.net/DTD/sodipodi-0.dtd"
   xmlns="http://www.w3.org/2000/svg"
   xmlns:svg="http://www.w3.org/2000/svg">
  <defs
     id="defs8" />
  <sodipodi:namedview
     id="namedview6"
     pagecolor="#ffffff"
     bordercolor="#666666"
     borderopacity="1.0"
     inkscape:showpageshadow="2"
     inkscape:pageopacity="0.0"
     inkscape:pagecheckerboard="0"
     inkscape:deskcolor="#d1d1d1"
     showgrid="false"
     inkscape:zoom="36.5"
     inkscape:cx="7.2465753"
     inkscape:cy="11.068493"
     inkscape:window-width="1920"
     inkscape:window-height="1043"
     inkscape:window-x="1920"
     inkscape:window-y="0"
     inkscape:window-maximized="1"
     inkscape:current-layer="svg4" />
  <g
     id="g1392"
     transform="matrix(1.0886242,0,0,1.0886242,-3.3254736,-2.177248)"
     style="stroke-width:0.918591">
    <path
       id="path2"
       d="M 14.077837,2 C 13.018757,2 11.949373,2.1935124 10.86868,2.5825622 9.7879858,2.9716118 8.8153585,3.5572145 7.9508035,4.335314 7.0862485,5.1134136 6.3789729,6.0795498 5.8282514,7.23546 5.2766653,8.3922345 5.0000001,9.7382832 5.0000001,11.272868 c 0,2.031705 0.749997,4.105123 2.251729,6.223283 1.5025966,2.118159 3.7785509,4.30218 6.8261079,6.550024 3.047557,-2.247844 5.321843,-4.431865 6.823575,-6.550024 1.502596,-2.11816 2.254261,-4.191578 2.254261,-6.223283 0,-1.5345848 -0.274997,-2.8806335 -0.825718,-4.037408 C 21.778368,6.0795498 21.069424,5.1134135 20.204869,4.335314 19.340314,3.5572146 18.367688,2.9716119 17.286993,2.5825622 16.2063,2.1935124 15.136917,2 14.077837,2 Z m 0,2.5936676 c 0.626802,0 1.317942,0.119384 2.074427,0.3571359 0.756486,0.2377527 1.458939,0.6208192 2.107355,1.1499269 0.648417,0.5299721 1.195256,1.2211117 1.638772,2.0744275 0.442652,0.8541803 0.663615,1.8873331 0.663615,3.0977101 0,1.404902 -0.545171,2.906565 -1.63624,4.505991 -1.091933,1.599427 -2.708156,3.263193 -4.847929,4.992303 C 11.938064,19.042052 10.32184,17.378286 9.2299073,15.778859 8.1388389,14.179433 7.5936677,12.67777 7.5936677,11.272868 c 0,-1.210377 0.2226303,-2.2435298 0.6661471,-3.0977101 C 8.702467,7.3218421 9.247638,6.6307025 9.8960542,6.1007304 10.54447,5.5716227 11.246924,5.1885562 12.00341,4.9508035 12.759894,4.7130509 13.451034,4.5936676 14.077837,4.5936676 Z m 0,3.8905014 c -0.713258,0 -1.323777,0.2549027 -1.831271,0.7623964 -0.508359,0.5083584 -0.762397,1.1180136 -0.762397,1.8312716 0,0.713257 0.254038,1.323776 0.762397,1.83127 0.507494,0.508359 1.118013,0.762397 1.831271,0.762397 0.713257,0 1.322913,-0.254038 1.83127,-0.762397 0.507494,-0.507494 0.762397,-1.118012 0.762397,-1.83127 0,-0.713258 -0.254903,-1.3229132 -0.762397,-1.8312716 C 15.40075,8.7390717 14.791094,8.484169 14.077837,8.484169 Z"
       style="stroke-width:0.918591" />
    <path
       style="fill:#00c7ff;fill-opacity:1;stroke:none;stroke-width:4.59294;stroke-linejoin:round;stroke-dasharray:9.18591, 4.59294"
       d="M 13.822091,20.539243 C 10.242934,17.583506 8.2203512,14.868864 7.712488,12.339141 7.5974677,11.766211 7.5961725,10.620142 7.709798,9.9586513 7.8878137,8.9223024 8.2110349,8.1560932 8.8477328,7.2611305 9.5149012,6.3233373 10.499202,5.5534902 11.581131,5.1232703 c 1.214286,-0.482851 2.495363,-0.6189919 3.654972,-0.388416 2.161073,0.4297067 3.775386,1.655143 4.705089,3.5716663 0.553441,1.1408854 0.749314,2.8207844 0.48069,4.1226034 -0.467368,2.264969 -2.239492,4.7631 -5.242963,7.39091 -0.580243,0.507669 -1.062839,0.904114 -1.100587,0.904114 -0.01778,0 -0.133093,-0.0832 -0.256241,-0.184905 z m 0.948575,-6.940753 c 0.862841,-0.231764 1.610101,-0.98666 1.830774,-1.849479 0.09576,-0.374397 0.09576,-0.967952 0,-1.342349 -0.222558,-0.8701962 -0.963,-1.6134315 -1.848539,-1.8555145 -0.318789,-0.087149 -1.03134,-0.087149 -1.350129,0 -0.885539,0.242083 -1.62598,0.9853183 -1.848539,1.8555145 -0.09507,0.371725 -0.09571,0.968136 -0.0014,1.336772 0.207234,0.810281 0.879712,1.53856 1.662991,1.800983 0.121889,0.04084 0.305757,0.08937 0.408592,0.107845 0.254598,0.04574 0.886095,0.01612 1.146275,-0.05377 z"
       id="path365" />
  </g>
</svg>
